<?xml version="1.0" standalone="no"?>
<!DOCTYPE svg PUBLIC "-//W3C//DTD SVG 20010904//EN"
 "http://www.w3.org/TR/2001/REC-SVG-20010904/DTD/svg10.dtd">
<svg version="1.0" xmlns="http://www.w3.org/2000/svg"
 width="303.000000pt" height="303.000000pt" viewBox="0 0 303.000000 303.000000"
 preserveAspectRatio="xMidYMid meet">
<metadata>
Created by potrace 1.14, written by Peter Selinger 2001-2017
</metadata>
<g transform="translate(0.000000,303.000000) scale(0.100000,-0.100000)"
fill="#000000" stroke="none">
<path d="M1950 2133 c-274 -45 -481 -223 -555 -477 -16 -53 -35 -166 -29 -166
13 0 49 74 65 132 44 159 140 290 273 373 121 75 180 90 346 89 96 -1 127 -5
187 -27 116 -41 206 -106 283 -202 164 -206 178 -497 35 -721 -190 -297 -603
-376 -884 -170 -33 25 -54 33 -69 29 -35 -9 -32 -13 68 -81 190 -131 467 -146
667 -36 178 99 295 247 343 438 88 348 -129 710 -480 801 -62 16 -201 26 -250
18z"/>
<path d="M1940 2058 c-25 -5 -55 -11 -67 -13 -46 -10 -48 -20 -47 -216 1 -101
2 -185 3 -186 1 -1 367 205 401 227 8 5 43 25 78 45 73 42 72 49 -13 89 -108
51 -253 73 -355 54z"/>
<path d="M2325 1879 c-38 -22 -77 -44 -85 -50 -8 -5 -45 -26 -82 -46 -37 -21
-68 -43 -68 -48 0 -7 433 -261 534 -313 12 -7 -1 132 -19 203 -30 113 -149
295 -193 295 -9 0 -48 -18 -87 -41z"/>
<path d="M493 1720 c-87 -30 -121 -62 -177 -163 -33 -59 -33 -71 -1 -26 73 98
159 123 260 75 65 -30 133 -98 238 -238 247 -328 413 -400 781 -342 76 12 224
78 354 156 30 19 42 38 23 38 -5 0 -125 67 -267 149 l-259 149 -54 -54 c-80
-82 -147 -110 -249 -106 -76 4 -147 47 -277 172 -200 193 -267 227 -372 190z
m142 -48 c-3 -3 -11 0 -18 7 -9 10 -8 11 6 5 10 -3 15 -9 12 -12z m85 -48 c0
-2 -9 0 -20 6 -11 6 -20 13 -20 16 0 2 9 0 20 -6 11 -6 20 -13 20 -16z m-105
-12 c-3 -3 -11 0 -18 7 -9 10 -8 11 6 5 10 -3 15 -9 12 -12z m66 -39 c13 -16
12 -17 -3 -4 -10 7 -18 15 -18 17 0 8 8 3 21 -13z m99 2 c7 -8 8 -15 2 -15 -5
0 -15 7 -22 15 -7 8 -8 15 -2 15 5 0 15 -7 22 -15z m-20 -77 c0 -6 -7 -5 -15
2 -8 7 -15 17 -15 22 0 6 7 5 15 -2 8 -7 15 -17 15 -22z m80 12 c7 -13 7 -20
1 -20 -6 0 -15 9 -21 20 -7 13 -7 20 -1 20 6 0 15 -9 21 -20z m616 -78 c-12
-12 -18 -13 -30 -3 -12 10 -13 17 -3 31 10 18 13 18 29 3 17 -15 17 -18 4 -31z
m-642 13 c3 -8 2 -15 -3 -15 -5 0 -14 7 -21 15 -10 12 -10 15 3 15 8 0 17 -7
21 -15z m85 1 c8 -9 8 -16 2 -20 -6 -4 -15 3 -21 14 -12 23 2 27 19 6z m779
-112 c92 -53 168 -97 170 -98 6 -7 -124 -69 -190 -92 l-72 -24 -25 22 c-14 13
-63 59 -109 104 l-85 81 62 43 c33 24 61 47 61 51 0 18 25 7 188 -87z m-289
62 c9 -10 8 -16 -4 -26 -19 -16 -41 1 -32 24 8 20 21 20 36 2z m-516 -39 c-4
-6 -12 -3 -20 8 -20 28 -16 41 7 20 11 -10 17 -22 13 -28z m105 25 c3 -9 -2
-13 -14 -10 -9 1 -19 9 -22 16 -3 9 2 13 14 10 9 -1 19 -9 22 -16z m77 -53
c-4 -5 -14 -5 -26 1 -11 6 -17 15 -14 21 4 5 14 5 26 -1 11 -6 17 -15 14 -21z
m261 19 c4 -6 -1 -17 -12 -25 -15 -11 -19 -11 -27 3 -14 25 24 46 39 22z
m-328 -33 c22 -12 29 -21 25 -33 -6 -15 -4 -15 10 -4 15 13 57 8 57 -6 -1 -4
-6 -17 -13 -29 -13 -23 -13 -22 -67 32 -58 59 -60 63 -12 40z m157 0 c0 -5
-10 -11 -22 -13 -16 -2 -23 2 -23 13 0 11 7 15 23 13 12 -2 22 -7 22 -13z m89
0 c4 -11 -1 -15 -19 -15 -16 0 -25 6 -25 15 0 8 9 15 19 15 10 0 21 -7 25 -15z
m-308 -6 c3 -6 2 -15 -3 -20 -5 -5 -14 0 -21 11 -10 17 -10 20 2 20 8 0 18 -5
22 -11z m513 -96 c50 -54 91 -101 91 -104 0 -18 -204 -19 -221 -2 -8 8 -61
165 -56 168 6 4 83 33 89 34 3 1 47 -43 97 -96z m-283 20 c-12 -68 -16 -74
-34 -63 -50 29 -55 38 -42 70 10 25 18 30 47 30 35 0 35 0 29 -37z m100 -46
l22 -79 -26 7 c-14 3 -41 13 -60 21 l-35 14 7 52 c9 65 12 70 44 66 24 -3 29
-11 48 -81z m-266 47 c0 -8 -4 -14 -9 -14 -12 0 -32 26 -25 33 10 9 34 -4 34
-19z m909 -33 c10 -18 -2 -31 -29 -31 -14 0 -21 33 -8 42 19 12 26 10 37 -11z
m-839 -32 c0 -12 -27 -11 -35 1 -11 17 5 32 21 19 8 -6 14 -15 14 -20z m750
-33 c-29 -13 -47 13 -22 32 14 11 19 10 30 -5 11 -15 10 -19 -8 -27z m-675
-17 c-8 -11 -16 -11 -34 0 -22 14 -4 33 20 21 11 -6 17 -15 14 -21z m600 -5
c0 -10 -7 -20 -16 -22 -21 -4 -34 28 -17 40 19 11 33 4 33 -18z m-515 -25 c0
-15 -30 -23 -42 -11 -6 6 -7 15 -4 20 7 12 46 4 46 -9z m434 4 c6 -15 -8 -32
-27 -33 -15 0 -20 32 -6 41 20 13 26 11 33 -8z m-89 -28 c0 -23 -31 -29 -40
-7 -6 16 13 34 30 29 6 -2 10 -12 10 -22z m-265 -5 c0 -21 -8 -24 -34 -14 -20
8 -9 34 15 34 12 0 19 -7 19 -20z m90 -9 c0 -15 -5 -19 -21 -16 -27 5 -33 11
-24 24 11 19 45 13 45 -8z m90 4 c0 -9 -7 -18 -16 -22 -18 -7 -39 11 -30 26
11 17 46 13 46 -4z"/>
<path d="M2740 1645 c0 -5 5 -17 10 -25 5 -8 10 -10 10 -5 0 6 -5 17 -10 25
-5 8 -10 11 -10 5z"/>
<path d="M2288 1548 c-4 -11 -3 -549 1 -601 1 -15 9 -12 59 18 90 57 177 154
219 246 22 48 57 159 51 163 -1 1 -59 34 -128 73 -69 39 -141 80 -161 92 -27
16 -38 18 -41 9z"/>
<path d="M1858 1533 c-3 -7 -3 -64 1 -105 1 -11 7 -15 21 -11 11 3 20 10 19
17 -3 28 3 36 27 36 14 0 23 4 19 10 -3 6 -17 10 -31 10 -14 0 -22 4 -19 10 3
6 17 10 31 10 15 0 24 6 24 15 0 11 -12 15 -44 15 -25 0 -46 -3 -48 -7z"/>
<path d="M1970 1480 l0 -60 50 0 c38 0 50 4 50 15 0 10 -10 15 -30 15 -29 0
-30 2 -30 45 0 38 -3 45 -20 45 -18 0 -20 -7 -20 -60z"/>
<path d="M2096 1511 c16 -28 16 -31 1 -55 -22 -32 -21 -36 3 -36 10 0 24 8 30
18 10 16 10 16 20 0 6 -10 20 -18 31 -18 18 0 19 2 4 30 -14 27 -14 33 0 60
15 28 14 30 -4 30 -11 0 -25 -8 -31 -17 -10 -17 -10 -17 -20 0 -6 9 -20 17
-31 17 -20 0 -20 -1 -3 -29z"/>
<path d="M2743 1511 c0 -11 5 -18 9 -15 4 3 5 11 1 19 -7 21 -12 19 -10 -4z"/>
<path d="M2751 1354 c0 -11 3 -14 6 -6 3 7 2 16 -1 19 -3 4 -6 -2 -5 -13z"/>
<path d="M219 1358 c-4 -10 -4 -126 1 -122 5 6 8 124 3 124 -2 0 -3 -1 -4 -2z"/>
<path d="M2165 1264 c-79 -62 -214 -146 -272 -170 -21 -9 -51 -22 -68 -29 -16
-7 -58 -24 -92 -37 -35 -12 -63 -26 -63 -30 0 -14 135 -82 199 -100 36 -10
100 -20 141 -22 71 -3 206 17 223 33 4 4 6 98 5 209 l-3 201 -70 -55z"/>
<path d="M215 1081 c0 -77 2 -142 5 -145 3 -2 6 60 6 140 0 79 -3 144 -6 144
-3 0 -6 -63 -5 -139z"/>
<path d="M2740 1205 c0 -5 5 -17 10 -25 5 -8 10 -10 10 -5 0 6 -5 17 -10 25
-5 8 -10 11 -10 5z"/>
<path d="M2746 1107 c3 -10 9 -15 12 -12 3 3 0 11 -7 18 -10 9 -11 8 -5 -6z"/>
<path d="M2744 984 c-1 -13 1 -24 5 -24 9 0 12 38 3 44 -4 2 -8 -7 -8 -20z"/>
<path d="M2749 948 c-6 -21 -5 -39 2 -44 5 -3 8 6 7 20 -2 22 -6 33 -9 24z"/>
<path d="M207 913 c-3 -5 6 -9 20 -10 19 -1 22 1 12 8 -17 11 -26 11 -32 2z"/>
<path d="M2685 901 c-34 -14 -74 -62 -81 -96 -7 -41 -1 -40 -291 -40 -123 1
-223 -2 -223 -5 0 -3 107 -5 238 -5 130 0 245 -2 255 -4 10 -2 17 -13 17 -28
0 -32 67 -101 105 -108 26 -6 25 -4 -10 13 -22 11 -48 28 -57 38 -24 27 -36
92 -25 134 11 45 32 68 82 91 39 18 30 26 -10 10z"/>
<path d="M2790 906 c0 -2 16 -13 35 -25 66 -39 87 -125 46 -196 -18 -33 -97
-79 -121 -70 -11 5 -12 3 -4 -5 11 -11 61 2 101 27 25 16 56 76 58 113 4 57
-33 118 -87 146 -16 8 -28 13 -28 10z"/>
<path d="M134 884 c-18 -14 -18 -15 4 -4 12 6 22 13 22 15 0 8 -5 6 -26 -11z"/>
<path d="M321 865 c15 -16 32 -43 38 -60 l11 -30 -6 30 c-3 17 -19 44 -37 60
l-32 30 26 -30z"/>
<path d="M96 853 c-6 -14 -5 -15 5 -6 7 7 10 15 7 18 -3 3 -9 -2 -12 -12z"/>
<path d="M2695 812 c-12 -12 -4 -41 9 -36 8 3 17 1 21 -5 3 -6 11 -11 17 -11
6 0 5 7 -4 18 -9 9 -14 22 -11 28 4 11 -22 15 -32 6z"/>
<path d="M66 767 c3 -10 9 -15 12 -12 3 3 0 11 -7 18 -10 9 -11 8 -5 -6z"/>
<path d="M370 762 c0 -4 36 -7 80 -8 43 0 77 2 75 5 -8 7 -155 10 -155 3z"/>
<path d="M546 761 c-3 -3 13 -6 34 -6 21 0 36 2 34 5 -8 7 -64 9 -68 1z"/>
<path d="M710 760 c8 -5 20 -10 25 -10 6 0 3 5 -5 10 -8 5 -19 10 -25 10 -5 0
-3 -5 5 -10z"/>
<path d="M830 760 c8 -5 20 -10 25 -10 6 0 3 5 -5 10 -8 5 -19 10 -25 10 -5 0
-3 -5 5 -10z"/>
<path d="M1210 766 c0 -2 7 -7 16 -10 8 -3 12 -2 9 4 -6 10 -25 14 -25 6z"/>
<path d="M1310 760 c8 -5 20 -10 25 -10 6 0 3 5 -5 10 -8 5 -19 10 -25 10 -5
0 -3 -5 5 -10z"/>
<path d="M1430 760 c8 -5 20 -10 25 -10 6 0 3 5 -5 10 -8 5 -19 10 -25 10 -5
0 -3 -5 5 -10z"/>
<path d="M1670 760 c8 -5 20 -10 25 -10 6 0 3 5 -5 10 -8 5 -19 10 -25 10 -5
0 -3 -5 5 -10z"/>
<path d="M1790 760 c8 -5 20 -10 25 -10 6 0 3 5 -5 10 -8 5 -19 10 -25 10 -5
0 -3 -5 5 -10z"/>
<path d="M1830 766 c0 -2 7 -7 16 -10 8 -3 12 -2 9 4 -6 10 -25 14 -25 6z"/>
<path d="M1904 763 c4 -4 16 -8 28 -10 28 -4 18 6 -12 12 -12 2 -20 1 -16 -2z"/>
<path d="M1965 760 c-5 -7 82 -7 89 0 3 3 -15 6 -40 6 -25 0 -47 -3 -49 -6z"/>
<path d="M1558 753 c7 -3 16 -2 19 1 4 3 -2 6 -13 5 -11 0 -14 -3 -6 -6z"/>
<path d="M2766 729 c10 -12 18 -23 17 -25 -2 -2 -1 -4 2 -4 3 0 10 0 15 0 6 0
10 9 10 20 0 12 -5 17 -14 14 -8 -3 -17 -1 -21 5 -3 6 -11 11 -17 11 -6 0 -3
-9 8 -21z"/>
<path d="M355 713 c-3 -15 -18 -41 -33 -58 l-27 -30 32 29 c28 25 51 72 40 83
-3 2 -8 -9 -12 -24z"/>
<path d="M88 685 c6 -11 21 -29 34 -40 22 -19 22 -19 -2 10 -40 48 -43 51 -32
30z"/>
<path d="M265 620 c-3 -6 1 -7 9 -4 18 7 21 14 7 14 -6 0 -13 -4 -16 -10z"/>
<path d="M178 613 c6 -2 18 -2 25 0 6 3 1 5 -13 5 -14 0 -19 -2 -12 -5z"/>
<path d="M225 610 c-3 -6 1 -7 9 -4 18 7 21 14 7 14 -6 0 -13 -4 -16 -10z"/>
</g>
</svg>
